<svg xmlns="http://www.w3.org/2000/svg" width="563" height="563" fill="none"><circle cx="281.5" cy="281.5" r="281.5" fill="#fff"/><path fill="#04E061" d="M186.965 460.27c67.687 0 122.559-54.872 122.559-122.559 0-67.688-54.872-122.559-122.559-122.559S64.406 270.023 64.406 337.711c0 67.687 54.872 122.559 122.559 122.559Z"/><path fill="#FF4053" d="M399.574 444.803c40.901 0 74.057-33.157 74.057-74.058 0-40.901-33.156-74.057-74.057-74.057s-74.058 33.156-74.058 74.057 33.157 74.058 74.058 74.058Z"/><path fill="#965EEB" d="M210.404 199.175c25.311 0 45.829-20.518 45.829-45.828 0-25.311-20.518-45.829-45.829-45.829-25.31 0-45.828 20.518-45.828 45.829 0 25.31 20.518 45.828 45.828 45.828Z"/><path fill="#0AF" d="M370.803 280.696c55.032 0 99.645-44.613 99.645-99.645 0-55.033-44.613-99.645-99.645-99.645-55.033 0-99.645 44.612-99.645 99.645 0 55.032 44.612 99.645 99.645 99.645Z"/></svg>