<?xml version="1.0" encoding="utf-8"?>
<!-- Svg Vector Icons : http://www.onlinewebfonts.com/icon -->
<!DOCTYPE svg PUBLIC "-//W3C//DTD SVG 1.1//EN" "http://www.w3.org/Graphics/SVG/1.1/DTD/svg11.dtd">
<svg version="1.1" xmlns="http://www.w3.org/2000/svg" xmlns:xlink="http://www.w3.org/1999/xlink" x="0px" y="0px" viewBox="0 0 256 256" enable-background="new 0 0 256 256" xml:space="preserve">
<metadata> Svg Vector Icons : http://www.onlinewebfonts.com/icon </metadata>
<g> <path fill="#000000" d="M142.8,221.4c5.4,0,9.8-4.4,9.8-9.8h-49.2c0,5.4,4.4,9.8,9.8,9.8H142.8z M108.8,230.8 c-8.9-2.1-15.2-10-15.2-19.2v-19.7c0-9.2-4.2-22.2-14-33.5c-1.5-1.7-3-3.5-4.6-5.2c-0.4-0.5-3.8-4.2-4.8-5.3 c-18.1-20.2-25.8-34.1-25.8-54.3C44.4,47.4,81.8,10,128,10c46.2,0,83.6,37.4,83.6,83.6c0,20.2-7.7,34.1-25.8,54.3 c-1,1.1-4.4,4.8-4.8,5.3c-1.8,2.1-3.2,3.6-4.6,5.2c-9.7,11.3-14,24.3-14,33.5v19.7c0,9.3-6.5,17.2-15.2,19.2 c-2.4,10.6-13,17.2-23.6,14.7C116.2,243.8,110.5,238.1,108.8,230.8L108.8,230.8z M152.6,201.8v-9.8h-49.2v9.8H152.6z M144,182.1 h8.9c1.3-10,6.5-18.9,16-30.1c1.4-1.6,2.8-3.2,4.7-5.3c0.5-0.5,3.8-4.2,4.8-5.3c16.6-18.6,23.3-30.6,23.3-47.8 c0-40.7-33-73.8-73.8-73.8c-40.7,0-73.8,33-73.8,73.8c0,17.1,6.7,29.2,23.3,47.8c1,1.1,4.3,4.8,4.8,5.3c1.9,2.1,3.3,3.7,4.7,5.3 c9.6,11.2,14.8,20.1,16,30.1h8.9L93.7,99.6c-0.6-2.7,1.1-5.3,3.7-5.9c0.4-0.1,0.7-0.1,1.1-0.1h59c2.7,0,4.9,2.2,4.9,4.9 c0,0.4,0,0.7-0.1,1.1L144,182.1L144,182.1z M133.9,182.1l17.5-78.7h-46.7l17.5,78.7H133.9L133.9,182.1z M128,34.6 c2.7,0,4.9,2.2,4.9,4.9c0,2.7-2.2,4.9-4.9,4.9c-27.2,0-49.2,22-49.2,49.2c0,2.7-2.2,4.9-4.9,4.9c-2.7,0-4.9-2.2-4.9-4.9 C69,61,95.4,34.6,128,34.6z M128,236.2c3.5,0,6.8-1.9,8.5-4.9h-17C121.2,234.3,124.5,236.2,128,236.2z"/></g>
</svg>