<?xml version="1.0" encoding="utf-8"?>
<!-- Svg Vector Icons : http://www.onlinewebfonts.com/icon -->
<!DOCTYPE svg PUBLIC "-//W3C//DTD SVG 1.1//EN" "http://www.w3.org/Graphics/SVG/1.1/DTD/svg11.dtd">
<svg version="1.1" xmlns="http://www.w3.org/2000/svg" xmlns:xlink="http://www.w3.org/1999/xlink" x="0px" y="0px" viewBox="0 0 256 256" enable-background="new 0 0 256 256" xml:space="preserve">
<metadata> Svg Vector Icons : http://www.onlinewebfonts.com/icon </metadata>
<g><g><g><path fill="#000000" d="M147.4,11.2l-1.2,1.2v26.1v26.1l-1.7,1.1c-2.1,1.3-4.1,3.8-4.9,6.2c-0.6,1.7-0.8,1.9-2.6,2.1c-2.4,0.3-4.3,1.7-5.7,3.9c-0.9,1.6-1,2.7-1.1,16.1c-0.1,7.9,0,15.3,0.1,16.5c0.5,3.6,4.3,6.9,7.8,6.9c0.8,0,1.2,0.3,1.2,0.7c0,2.1,4.7,8.1,6.3,8.1c0.3,0,0.5,8.7,0.5,25c0,27.7,0,28.5-3.1,33.5c-6.5,10.8-20.5,14-31.4,7c-3.2-2.1-5.3-4.3-7.2-7.9c-2.5-4.6-2.7-6.7-2.7-24.3v-16.3h2.9c4.2,0,4.9-0.8,4.9-6.1c0-2.4-0.3-4.9-0.7-6.2c-0.8-2.3-3.6-5.5-5.8-6.6l-1.3-0.7v-19.4c0-18.9,0-19.5-1-20.7c-1.3-1.6-3.9-1.8-5.3-0.3c-0.9,0.9-1,1.6-1,20.3v19.3H79.6H64.7l-0.1-19.3l-0.1-19.3l-1.2-0.9c-1.5-1.2-3.5-1.2-5,0l-1.2,0.9l-0.2,19.8l-0.2,19.7l-2.2,1.7c-4,3.1-5.4,6-5.4,11.9c0,4.9,0.9,6,5,6.2l3,0.1l0.3,23.2c0.2,19.2,0.4,23.8,1.1,26.6c6.5,27.1,26.1,46.2,53,51.9c5.7,1.2,19,1.2,25,0c23.8-4.8,43.3-21.9,50.9-44.5c3.3-9.7,3.3-10.2,3.6-43.7l0.2-30.5l2-1.5c2.3-1.7,4.2-4.2,4.6-6.2c0.2-1.1,0.6-1.3,2.4-1.6c2.4-0.3,4.7-2,6-4.3c0.7-1.3,0.8-3.3,0.8-17.4c0-15.6,0-15.9-1.1-17.6c-1.4-2.2-3.2-3.5-5.7-3.9c-1.7-0.2-2-0.4-2.6-2.1c-0.8-2.5-2.6-4.8-4.8-6.2l-1.7-1.1V39c0-18-0.1-25.9-0.5-26.8c-1.3-2.7-5.5-2.7-6.7,0c-0.4,0.9-0.5,8.7-0.5,26.3v25.1h-14.6H154L153.9,38l-0.1-25.7l-1.4-1.2C150.6,9.6,148.9,9.6,147.4,11.2z M189.1,72.1c0.6,0.5,1,1.1,1,1.4c0,0.2-9.7,0.4-21.5,0.4s-21.5-0.2-21.5-0.4c0-0.5,1.5-1.8,2.4-2.2c0.4-0.1,9.2-0.2,19.6-0.2C187,71.2,188.1,71.3,189.1,72.1z M199.4,95.4v14.2h-30.8h-30.8V95.4V81.2h30.8h30.8V95.4z M189,118.6l-1.4,1.2h-18.8c-15.9,0-19-0.1-20.2-0.7c-0.8-0.4-1.5-1-1.5-1.2c0-0.3,7.9-0.5,21.6-0.5l21.6,0L189,118.6z M183.3,156.3c0,31.5-0.1,33.2-2.9,41.6c-6.8,20.2-23.6,35.2-44.3,39.4c-2.7,0.6-5.7,1-6.7,1h-1.8v-17.8v-17.7l3.3-0.8c10.7-2.6,18.6-10.3,22-21.4c0.6-2.1,0.8-6.7,0.9-27.8l0.2-25.2h14.6h14.6V156.3z M99.9,131c1,0.6,2.4,2.9,2.4,4.1c0,0.6-2.5,0.7-23,0.7c-20.8,0-23-0.1-22.7-0.8c0.1-0.4,0.3-1,0.3-1.4c0-0.4,0.6-1.2,1.3-2l1.3-1.3h19.7C91.8,130.5,99.2,130.7,99.9,131z M94.5,161.5c0.2,12.8,0.4,18.6,0.9,20c1.6,4.8,4.1,8.8,8.1,12.7c4.3,4.3,8,6.4,13.6,7.9l3.3,0.8v17.9v17.8l-3.4-0.3c-8-0.7-18.8-4.7-25.9-9.6c-13.9-9.4-22.9-23.7-25.6-40.2c-0.5-3.4-0.7-9.2-0.7-24.8v-20.4l14.8,0.1l14.7,0.1L94.5,161.5z"/></g></g></g>
</svg>